<svg width="20" height="20" viewBox="0 0 20 20" fill="none" xmlns="http://www.w3.org/2000/svg">
<path d="M12.2665 7.32496L8.69151 10.9083L7.31651 9.53329C7.2418 9.44606 7.14987 9.37521 7.04648 9.32519C6.94309 9.27517 6.83048 9.24706 6.71572 9.24263C6.60095 9.23819 6.48651 9.25753 6.37957 9.29943C6.27263 9.34132 6.17551 9.40487 6.0943 9.48608C6.01309 9.5673 5.94954 9.66442 5.90764 9.77136C5.86575 9.87829 5.84641 9.99274 5.85084 10.1075C5.85528 10.2223 5.88338 10.3349 5.9334 10.4383C5.98342 10.5417 6.05427 10.6336 6.14151 10.7083L8.09984 12.675C8.17771 12.7522 8.27005 12.8133 8.37159 12.8548C8.47312 12.8962 8.58184 12.9173 8.69151 12.9166C8.91012 12.9157 9.11962 12.8289 9.27484 12.675L13.4415 8.50829C13.5196 8.43082 13.5816 8.33866 13.6239 8.23711C13.6662 8.13556 13.688 8.02664 13.688 7.91663C13.688 7.80662 13.6662 7.69769 13.6239 7.59615C13.5816 7.4946 13.5196 7.40243 13.4415 7.32496C13.2854 7.16975 13.0742 7.08263 12.854 7.08263C12.6339 7.08263 12.4226 7.16975 12.2665 7.32496ZM9.99984 1.66663C8.35166 1.66663 6.7405 2.15537 5.37009 3.07105C3.99968 3.98672 2.93158 5.28821 2.30084 6.81093C1.67011 8.33365 1.50509 10.0092 1.82663 11.6257C2.14817 13.2422 2.94185 14.7271 4.10728 15.8925C5.27272 17.058 6.75758 17.8516 8.37409 18.1732C9.9906 18.4947 11.6662 18.3297 13.1889 17.699C14.7116 17.0682 16.0131 16.0001 16.9288 14.6297C17.8444 13.2593 18.3332 11.6481 18.3332 9.99996C18.3332 8.90561 18.1176 7.82198 17.6988 6.81093C17.28 5.79988 16.6662 4.88122 15.8924 4.1074C15.1186 3.33358 14.1999 2.71975 13.1889 2.30096C12.1778 1.88217 11.0942 1.66663 9.99984 1.66663ZM9.99984 16.6666C8.6813 16.6666 7.39237 16.2756 6.29604 15.5431C5.19971 14.8105 4.34523 13.7694 3.84064 12.5512C3.33606 11.333 3.20404 9.99256 3.46127 8.69936C3.71851 7.40615 4.35345 6.21826 5.2858 5.28591C6.21815 4.35356 7.40603 3.71863 8.69924 3.46139C9.99245 3.20416 11.3329 3.33618 12.5511 3.84076C13.7692 4.34535 14.8104 5.19983 15.543 6.29616C16.2755 7.39249 16.6665 8.68142 16.6665 9.99996C16.6665 11.7681 15.9641 13.4638 14.7139 14.714C13.4636 15.9642 11.768 16.6666 9.99984 16.6666Z" fill="#5F9E62"/>
</svg>
