<svg width="246" height="46" viewBox="0 0 246 46" fill="none" xmlns="http://www.w3.org/2000/svg">
<g clip-path="url(#clip0_49_42)">
<path d="M68.8083 2.17015L68.6133 11.8048C68.5155 16.6222 71.2979 18.6331 75.619 18.6331C79.4491 18.6331 82.324 16.0644 82.3744 13.6111C82.411 11.8048 81.8602 9.90877 80.2088 9.03915C81.0801 8.43706 81.4707 7.32205 81.4905 6.3848C81.5331 4.2661 79.5379 2.16955 75.3645 2.16955H68.8095L68.8083 2.17015ZM74.9805 11.3589C75.1779 11.3141 75.4977 11.2698 75.8902 11.2698C76.6025 11.2698 77.2781 11.8497 77.2601 12.7415C77.2469 13.3885 76.7165 14.1019 75.6124 14.1019C74.7285 14.1019 74.0804 13.3657 74.099 12.4518L74.2274 6.11787C74.4987 6.07358 74.9409 6.05083 75.1617 6.05083C76.168 6.05083 76.5989 6.63078 76.5875 7.18799C76.5754 7.76793 76.198 8.23596 75.5349 8.23596L74.9805 11.3583V11.3589ZM84.6432 2.17015L84.405 13.9014C84.3414 17.0459 87.0669 18.2279 89.8169 18.2279H96.3474L96.4296 14.1689H92.1086C90.5616 14.1689 89.9075 13.7452 89.9393 12.1837H96.4698L96.5502 8.21382H90.0198L90.06 6.22859H96.5904L96.6726 2.16955H84.6426L84.6432 2.17015ZM104.333 2.17015H98.8334L98.5076 18.2279H104.007L104.13 12.1837H106.733L106.61 18.2279H112.109L112.435 2.17015H106.935L106.813 8.21442H104.211L104.333 2.17015ZM122.59 6.22919H125.537L125.619 2.17015H114.227L114.145 6.22919H117.091L116.848 18.2279H122.347L122.591 6.22919H122.59ZM126.929 10.199C126.834 14.8602 130.907 18.6331 136.038 18.6331C141.169 18.6331 145.394 14.8602 145.489 10.199C145.584 5.53792 141.511 1.76855 136.38 1.76855C131.249 1.76855 127.024 5.53792 126.929 10.199ZM136.14 13.6338C134.053 13.6338 132.39 12.0951 132.428 10.199C132.467 8.30299 134.192 6.76425 136.279 6.76425C138.365 6.76425 140.029 8.30299 139.99 10.199C139.951 12.0945 138.226 13.6338 136.139 13.6338H136.14ZM163.501 4.55637C161.892 2.81713 159.261 1.76855 156.659 1.76855C151.504 1.76855 147.303 5.53792 147.208 10.199C147.113 14.8602 151.137 18.6331 156.292 18.6331C159.287 18.6331 161.866 17.3805 163.472 15.6406L159.592 12.0945C158.886 13.009 157.768 13.6332 156.393 13.6332C154.332 13.6332 152.669 12.0718 152.707 10.1984C152.745 8.30239 154.471 6.76365 156.533 6.76365C157.637 6.76365 158.807 7.20953 159.477 8.05701L163.501 4.55578V4.55637ZM183.411 2.17015H177.911L177.586 18.2279H183.085L183.188 13.1652C183.204 12.362 183.728 11.961 184.244 11.961C184.808 11.961 185.315 12.3848 185.296 13.2993L185.196 18.2279H190.696L190.807 12.7636C190.855 10.3995 190.092 9.28454 187.939 8.88294L191.488 2.16955H185.964L183.287 8.28085L183.411 2.16955V2.17015ZM199.368 10.6677C200.399 10.6677 201.269 11.4038 201.248 12.4075C201.229 13.3891 200.306 14.1025 199.299 14.1025C198.808 14.1025 198.223 13.902 197.958 13.6117L199.208 18.5667C202.94 18.5667 206.09 15.7974 206.159 12.4075C206.228 8.97272 203.191 6.20704 199.46 6.20704C195.728 6.20704 192.579 8.97272 192.509 12.4075L192.302 22.6036H197.212L197.419 12.4075C197.442 11.3147 198.412 10.6677 199.37 10.6677H199.368ZM225.795 6.5416H220.885L220.648 18.2285H225.558L225.795 6.5416ZM207.505 6.5416L207.375 12.9426C207.288 17.247 210.796 18.5667 213.889 18.5667C217.67 18.5667 219.692 15.7304 219.748 12.9426C219.806 10.0656 217.56 8.23656 215.228 8.23656C214.589 8.23656 213.875 8.34848 213.08 8.81651L212.569 12.2292C212.991 11.9838 213.461 11.8054 214.027 11.8054C214.861 11.8054 215.831 12.4075 215.811 13.3891C215.793 14.3257 214.821 14.9948 213.962 14.9948C213.053 14.9948 212.013 14.2365 212.033 13.2777L212.169 6.5422H207.505V6.5416ZM231.964 6.20704C228.87 6.20704 227.887 7.501 227.641 9.90937L226.785 18.2285H231.327L232.02 10.6898L232.765 13.9241C233.464 16.9795 234.07 18.5667 236.107 18.5667C238.047 18.5667 238.791 16.9795 239.689 13.8792L240.613 10.6898L241 18.2285H245.542L245.023 9.90937C244.876 7.501 243.993 6.20704 240.851 6.20704C239.157 6.20704 237.746 6.78699 237.108 9.19596L236.283 12.3626L235.684 9.19596C235.218 6.76484 233.658 6.20704 231.964 6.20704H231.964Z" fill="#FEFEFE"/>
<path fill-rule="evenodd" clip-rule="evenodd" d="M169.295 7.39575C170.976 7.39575 172.339 8.82378 172.339 10.5852C172.339 12.3466 170.976 13.7746 169.295 13.7746C167.615 13.7746 166.252 12.3466 166.252 10.5852C166.252 8.82378 167.615 7.39575 169.295 7.39575Z" fill="#FEFEFE"/>
<path fill-rule="evenodd" clip-rule="evenodd" d="M22.6859 23.5391C20.8503 23.2524 20.4309 24.2735 19.316 23.0998C17.5224 21.2128 16.5059 19.2293 11.1264 23.2554C9.08318 24.7613 3.51884 33.7119 6.61814 33.5006C12.9722 33.0583 20.1999 28.2344 26.1914 24.3034C28.2244 22.97 23.4636 23.4434 22.6859 23.5391ZM0.84498 33.6334C-0.260327 34.2194 -0.064708 35.8754 0.231121 36.2746C2.33372 39.1211 8.69614 38.1096 14.7231 35.6702C23.3124 32.1929 26.0438 25.996 25.9532 26.1396C22.7657 31.1952 12.7813 36.3369 6.41952 36.8229C3.31242 37.0605 -0.557356 36.5248 0.84558 33.6329L0.84498 33.6334ZM30.5293 26.7363C29.9958 28.4103 31.3537 28.6354 29.6316 30.6008C26.8605 33.7627 24.012 36.4225 29.2577 36.7074C31.2175 36.8372 43.3411 32.5861 43.2691 30.4207C43.1089 25.9882 36.8803 25.0503 31.8122 24.2083C30.0924 23.9228 30.4513 26.2342 30.5299 26.7363H30.5293ZM33.6556 22.7946C36.1716 22.4786 38.5478 22.3427 40.5292 22.457C54.6444 23.2692 58.4476 27.5216 56.0587 31.8266C52.6546 37.9612 30.9883 40.8621 31.4582 40.7766C55.9933 36.3429 57.5997 24.0095 33.655 22.7946H33.6556ZM29.1797 21.5988C30.3024 20.862 31.625 20.6992 32.1338 21.2343C32.6427 21.7694 32.1446 22.8006 31.0219 23.5373C29.8992 24.2741 28.5761 24.4369 28.0678 23.9018C27.5596 23.3662 28.0576 22.3355 29.1797 21.5988ZM44.9055 4.48643C44.7908 3.41451 44.024 2.78669 43.4731 2.29771C38.5112 -2.11324 37.1437 0.838564 32.6781 2.8202C25.9784 5.79236 28.2478 17.4153 28.2514 17.1974C28.4153 5.84623 39.8212 -2.90626 44.9055 4.48643ZM34.9007 18.0467C36.8635 16.484 36.6391 15.4438 39.3189 14.2444C41.799 13.1342 44.1104 12.2257 45.3429 11.0137C45.3135 11.1088 45.2823 11.2046 45.2511 11.2998L45.7125 10.8293L45.3927 10.964C46.264 10.0794 46.5622 9.03265 45.9406 7.63096C45.4089 6.34777 36.7405 4.06688 34.4614 6.53211C29.8014 11.5835 30.9349 16.2476 31.772 20.1319C32.0558 21.4498 34.3918 18.6554 34.9001 18.0473L34.9007 18.0467Z" fill="#FEFEFE"/>
<path fill-rule="evenodd" clip-rule="evenodd" d="M12.2022 0.941162H47.338C49.8738 0.941162 51.9482 2.98325 51.9482 5.4796V40.5697C51.9482 43.0661 49.8732 45.1082 47.338 45.1082H12.2022C9.66632 45.1082 7.59192 43.0661 7.59192 40.5697V5.4796C7.59192 2.98385 9.66632 0.941162 12.2022 0.941162Z" fill="#001233" stroke="#FEFEFE" stroke-width="0.288367" stroke-miterlimit="22.9256"/>
<path fill-rule="evenodd" clip-rule="evenodd" d="M12.5742 0.837646H37.143C35.5402 1.38468 33.1142 2.46437 31.6579 3.86547C26.3456 8.97427 27.9915 18.0805 27.9945 17.8686C28.1607 6.81249 39.7113 -1.71137 44.8604 5.4886C44.7445 4.44481 44.4793 3.56442 44.0407 2.97729C43.2522 1.92273 42.3629 1.22847 41.4142 0.837646H46.936C49.692 0.837646 51.9476 3.08682 51.9476 5.83633V24.1565C45.2504 21.6392 40.1115 22.5178 33.4676 23.3192C57.7154 24.503 56.0886 36.5149 31.2426 40.8331C30.8658 40.8983 44.5207 39.1429 51.947 35.4484V40.1089C51.947 42.8584 49.692 45.1076 46.9354 45.1076H12.573C9.81636 45.1076 7.56134 42.8584 7.56134 40.1089V37.8161C9.69155 37.4396 12.0168 36.7471 14.2946 35.8602C22.9924 32.4738 25.7593 26.4379 25.6675 26.5786C22.5808 31.2864 14.1158 35.3006 7.56134 36.3054V33.5793C13.6219 32.6115 20.3 28.3292 25.9087 24.7903C27.9675 23.4915 23.146 23.1348 22.3588 23.2282C20.4998 22.9493 20.075 23.9434 18.9456 22.8009C13.2109 16.9966 10.5544 22.9361 7.56134 27.4877V5.83693C7.56134 3.08741 9.81636 0.838245 12.573 0.838245L12.5742 0.837646ZM30.3023 27.1591C29.7623 28.7895 30.3167 29.0091 28.573 30.9237C25.7671 34.0036 23.7029 37.3947 29.0146 37.6886C31.0002 37.7987 43.281 32.8575 43.2036 30.7478C43.0458 26.4308 36.7338 25.5181 31.6015 24.6969C29.8601 24.4186 30.2237 26.6702 30.3029 27.1591H30.3023ZM28.1157 22.1551C29.2528 21.4381 31.4118 21.2789 31.9273 21.7996C32.4427 22.3209 31.9381 23.3251 30.801 24.0427C29.6645 24.7598 28.3246 24.919 27.8097 24.3977C27.2949 23.8764 26.9792 22.8721 28.1157 22.1551ZM34.729 18.6957C36.7164 17.1737 36.4889 16.1605 39.203 14.9922C42.2705 13.6719 47.6302 12.4007 45.9099 8.54994C45.3548 7.30745 36.591 4.25928 34.2849 6.66166C29.5643 11.5796 30.714 16.9421 31.5619 20.7253C31.8493 22.0084 34.2147 19.2871 34.7296 18.6951L34.729 18.6957Z" fill="#FEFEFE"/>
</g>
<defs>
<clipPath id="clip0_49_42">
<rect width="246" height="46" fill="white"/>
</clipPath>
</defs>
</svg>
