<svg width="246" height="46" viewBox="0 0 246 46" fill="none" xmlns="http://www.w3.org/2000/svg">
<g clip-path="url(#clip0_1_410)">
<path d="M68.8083 2.17003L68.6133 11.8047C68.5155 16.622 71.2979 18.633 75.619 18.633C79.4491 18.633 82.324 16.0642 82.3744 13.611C82.411 11.8047 81.8602 9.90865 80.2088 9.03903C81.0801 8.43694 81.4707 7.32193 81.4905 6.38467C81.5331 4.26598 79.5379 2.16943 75.3645 2.16943H68.8095L68.8083 2.17003ZM74.9805 11.3588C75.1779 11.3139 75.4977 11.2696 75.8902 11.2696C76.6025 11.2696 77.2781 11.8496 77.2601 12.7414C77.2469 13.3883 76.7165 14.1018 75.6124 14.1018C74.7285 14.1018 74.0804 13.3656 74.099 12.4517L74.2274 6.11774C74.4987 6.07345 74.9409 6.05071 75.1617 6.05071C76.168 6.05071 76.5989 6.63066 76.5875 7.18786C76.5754 7.76781 76.198 8.23584 75.5349 8.23584L74.9805 11.3582V11.3588ZM84.6432 2.17003L84.405 13.9013C84.3414 17.0458 87.0669 18.2278 89.8169 18.2278H96.3474L96.4296 14.1688H92.1086C90.5616 14.1688 89.9075 13.745 89.9393 12.1836H96.4698L96.5502 8.2137H90.0198L90.06 6.22847H96.5904L96.6726 2.16943H84.6426L84.6432 2.17003ZM104.333 2.17003H98.8334L98.5076 18.2278H104.007L104.13 12.1836H106.733L106.61 18.2278H112.109L112.435 2.17003H106.935L106.813 8.21429H104.211L104.333 2.17003ZM122.59 6.22906H125.537L125.619 2.17003H114.227L114.145 6.22906H117.091L116.848 18.2278H122.347L122.591 6.22906H122.59ZM126.929 10.1989C126.834 14.8601 130.907 18.633 136.038 18.633C141.169 18.633 145.394 14.8601 145.489 10.1989C145.584 5.5378 141.511 1.76843 136.38 1.76843C131.249 1.76843 127.024 5.5378 126.929 10.1989ZM136.14 13.6337C134.053 13.6337 132.39 12.095 132.428 10.1989C132.467 8.30287 134.192 6.76412 136.279 6.76412C138.365 6.76412 140.029 8.30287 139.99 10.1989C139.951 12.0944 138.226 13.6337 136.139 13.6337H136.14ZM163.501 4.55625C161.892 2.81701 159.261 1.76843 156.659 1.76843C151.504 1.76843 147.303 5.5378 147.208 10.1989C147.113 14.8601 151.137 18.633 156.292 18.633C159.287 18.633 161.866 17.3803 163.472 15.6405L159.592 12.0944C158.886 13.0089 157.768 13.6331 156.393 13.6331C154.332 13.6331 152.669 12.0716 152.707 10.1983C152.745 8.30227 154.471 6.76353 156.533 6.76353C157.637 6.76353 158.807 7.20941 159.477 8.05689L163.501 4.55565V4.55625ZM183.411 2.17003H177.911L177.586 18.2278H183.085L183.188 13.1651C183.204 12.3619 183.728 11.9609 184.244 11.9609C184.808 11.9609 185.315 12.3847 185.296 13.2992L185.196 18.2278H190.696L190.807 12.7635C190.855 10.3994 190.092 9.28441 187.939 8.88282L191.488 2.16943H185.964L183.287 8.28073L183.411 2.16943V2.17003ZM199.368 10.6676C200.399 10.6676 201.269 11.4037 201.248 12.4074C201.229 13.3889 200.306 14.1024 199.299 14.1024C198.808 14.1024 198.223 13.9019 197.958 13.6116L199.208 18.5666C202.94 18.5666 206.09 15.7973 206.159 12.4074C206.228 8.97259 203.191 6.20692 199.46 6.20692C195.728 6.20692 192.579 8.97259 192.509 12.4074L192.302 22.6035H197.212L197.419 12.4074C197.442 11.3145 198.412 10.6676 199.37 10.6676H199.368ZM225.795 6.54148H220.885L220.648 18.2284H225.558L225.795 6.54148ZM207.505 6.54148L207.375 12.9425C207.288 17.2469 210.796 18.5666 213.889 18.5666C217.67 18.5666 219.692 15.7303 219.748 12.9425C219.806 10.0655 217.56 8.23644 215.228 8.23644C214.589 8.23644 213.875 8.34836 213.08 8.81639L212.569 12.229C212.991 11.9837 213.461 11.8053 214.027 11.8053C214.861 11.8053 215.831 12.4074 215.811 13.3889C215.793 14.3256 214.821 14.9947 213.962 14.9947C213.053 14.9947 212.013 14.2364 212.033 13.2776L212.169 6.54208H207.505V6.54148ZM231.964 6.20692C228.87 6.20692 227.887 7.50088 227.641 9.90925L226.785 18.2284H231.327L232.02 10.6897L232.765 13.924C233.464 16.9793 234.07 18.5666 236.107 18.5666C238.047 18.5666 238.791 16.9793 239.689 13.8791L240.613 10.6897L241 18.2284H245.542L245.023 9.90925C244.876 7.50088 243.993 6.20692 240.851 6.20692C239.157 6.20692 237.746 6.78687 237.108 9.19584L236.283 12.3625L235.684 9.19584C235.218 6.76472 233.658 6.20692 231.964 6.20692H231.964Z" fill="#008BEA"/>
<path fill-rule="evenodd" clip-rule="evenodd" d="M169.295 7.39551C170.976 7.39551 172.339 8.82353 172.339 10.5849C172.339 12.3463 170.976 13.7743 169.295 13.7743C167.615 13.7743 166.252 12.3463 166.252 10.5849C166.252 8.82353 167.615 7.39551 169.295 7.39551Z" fill="#008BEA"/>
<path fill-rule="evenodd" clip-rule="evenodd" d="M22.6859 23.539C20.8503 23.2523 20.4309 24.2734 19.316 23.0997C17.5224 21.2126 16.5059 19.2292 11.1264 23.2553C9.08318 24.7611 3.51884 33.7117 6.61814 33.5005C12.9722 33.0582 20.1999 28.2342 26.1914 24.3033C28.2244 22.9698 23.4636 23.4432 22.6859 23.539ZM0.84498 33.6333C-0.260327 34.2193 -0.064708 35.8753 0.231121 36.2745C2.33372 39.121 8.69614 38.1095 14.7231 35.67C23.3124 32.1927 26.0438 25.9959 25.9532 26.1395C22.7657 31.195 12.7813 36.3368 6.41952 36.8227C3.31242 37.0603 -0.557356 36.5247 0.84558 33.6327L0.84498 33.6333ZM30.5293 26.7362C29.9958 28.4102 31.3537 28.6352 29.6316 30.6007C26.8605 33.7626 24.012 36.4223 29.2577 36.7072C31.2175 36.8371 43.3411 32.586 43.2691 30.4206C43.1089 25.9881 36.8803 25.0502 31.8122 24.2081C30.0924 23.9226 30.4513 26.2341 30.5299 26.7362H30.5293ZM33.6556 22.7945C36.1716 22.4785 38.5478 22.3426 40.5292 22.4569C54.6444 23.2691 58.4476 27.5214 56.0587 31.8265C52.6546 37.9611 30.9883 40.862 31.4582 40.7764C55.9933 36.3427 57.5997 24.0094 33.655 22.7945H33.6556ZM29.1797 21.5987C30.3024 20.8619 31.625 20.6991 32.1338 21.2342C32.6427 21.7692 32.1446 22.8005 31.0219 23.5372C29.8992 24.274 28.5761 24.4368 28.0678 23.9017C27.5596 23.366 28.0576 22.3354 29.1797 21.5987ZM44.9055 4.48631C44.7908 3.41439 44.024 2.78656 43.4731 2.29759C38.5112 -2.11337 37.1437 0.838442 32.6781 2.82008C25.9784 5.79224 28.2478 17.4151 28.2514 17.1973C28.4153 5.8461 39.8212 -2.90638 44.9055 4.48631ZM34.9007 18.0466C36.8635 16.4839 36.6391 15.4437 39.3189 14.2443C41.799 13.1341 44.1104 12.2255 45.3429 11.0136C45.3135 11.1087 45.2823 11.2045 45.2511 11.2996L45.7125 10.8292L45.3927 10.9639C46.264 10.0793 46.5622 9.03253 45.9406 7.63084C45.4089 6.34765 36.7405 4.06676 34.4614 6.53199C29.8014 11.5833 30.9349 16.2475 31.772 20.1317C32.0558 21.4496 34.3918 18.6552 34.9001 18.0472L34.9007 18.0466Z" fill="#008BEA"/>
<path fill-rule="evenodd" clip-rule="evenodd" d="M12.2022 0.940918H47.338C49.8738 0.940918 51.9482 2.98301 51.9482 5.47936V40.5695C51.9482 43.0659 49.8732 45.1079 47.338 45.1079H12.2022C9.66632 45.1079 7.59192 43.0659 7.59192 40.5695V5.47936C7.59192 2.9836 9.66632 0.940918 12.2022 0.940918Z" fill="#FEFEFE" stroke="#FEFEFE" stroke-width="0.288367" stroke-miterlimit="22.9256"/>
<path fill-rule="evenodd" clip-rule="evenodd" d="M12.5742 0.837402H37.143C35.5402 1.38443 33.1142 2.46413 31.6579 3.86522C26.3456 8.97403 27.9915 18.0802 27.9945 17.8684C28.1607 6.81224 39.7113 -1.71162 44.8604 5.48836C44.7445 4.44457 44.4793 3.56418 44.0407 2.97705C43.2522 1.92249 42.3629 1.22822 41.4142 0.837402H46.936C49.692 0.837402 51.9476 3.08657 51.9476 5.83609V24.1562C45.2504 21.6389 40.1115 22.5175 33.4676 23.3189C57.7154 24.5028 56.0886 36.5147 31.2426 40.8329C30.8658 40.8981 44.5207 39.1427 51.947 35.4481V40.1087C51.947 42.8582 49.692 45.1074 46.9354 45.1074H12.573C9.81636 45.1074 7.56134 42.8582 7.56134 40.1087V37.8158C9.69155 37.4394 12.0168 36.7469 14.2946 35.8599C22.9924 32.4736 25.7593 26.4377 25.6675 26.5784C22.5808 31.2862 14.1158 35.3003 7.56134 36.3052V33.579C13.6219 32.6112 20.3 28.329 25.9087 24.79C27.9675 23.4913 23.146 23.1346 22.3588 23.2279C20.4998 22.949 20.075 23.9432 18.9456 22.8006C13.2109 16.9963 10.5544 22.9359 7.56134 27.4875V5.83669C7.56134 3.08717 9.81636 0.838001 12.573 0.838001L12.5742 0.837402ZM30.3023 27.1589C29.7623 28.7892 30.3167 29.0089 28.573 30.9235C25.7671 34.0034 23.7029 37.3945 29.0146 37.6883C31.0002 37.7985 43.281 32.8572 43.2036 30.7475C43.0458 26.4305 36.7338 25.5178 31.6015 24.6967C29.8601 24.4184 30.2237 26.6699 30.3029 27.1589H30.3023ZM28.1157 22.1548C29.2528 21.4378 31.4118 21.2786 31.9273 21.7993C32.4427 22.3206 31.9381 23.3249 30.801 24.0425C29.6645 24.7595 28.3246 24.9187 27.8097 24.3974C27.2949 23.8761 26.9792 22.8718 28.1157 22.1548ZM34.729 18.6955C36.7164 17.1735 36.4889 16.1602 39.203 14.992C42.2705 13.6717 47.6302 12.4005 45.9099 8.54969C45.3548 7.3072 36.591 4.25904 34.2849 6.66142C29.5643 11.5793 30.714 16.9419 31.5619 20.725C31.8493 22.0082 34.2147 19.2868 34.7296 18.6949L34.729 18.6955Z" fill="#008BEA"/>
</g>
<defs>
<clipPath id="clip0_1_410">
<rect width="246" height="46" fill="white"/>
</clipPath>
</defs>
</svg>
