<svg width="18" height="18" viewBox="0 0 18 18" fill="none" xmlns="http://www.w3.org/2000/svg">
<g clip-path="url(#clip0_4_476)">
<path d="M1.39288 1.92862V7.07148C1.39288 7.42652 1.6807 7.71434 2.03574 7.71434H7.1786C7.53363 7.71434 7.82145 7.42652 7.82145 7.07148V1.92862C7.82145 1.57359 7.53363 1.28577 7.1786 1.28577H2.03574C1.6807 1.28577 1.39288 1.57359 1.39288 1.92862Z" stroke="white" stroke-width="1.5" stroke-linecap="round" stroke-linejoin="round"/>
<path d="M10.3929 1.92862V7.07148C10.3929 7.42652 10.6807 7.71434 11.0357 7.71434H16.1786C16.5336 7.71434 16.8215 7.42652 16.8215 7.07148V1.92862C16.8215 1.57359 16.5336 1.28577 16.1786 1.28577H11.0357C10.6807 1.28577 10.3929 1.57359 10.3929 1.92862Z" stroke="white" stroke-width="1.5" stroke-linecap="round" stroke-linejoin="round"/>
<path d="M1.39288 10.9286V16.0715C1.39288 16.4265 1.6807 16.7143 2.03574 16.7143H7.1786C7.53363 16.7143 7.82145 16.4265 7.82145 16.0715V10.9286C7.82145 10.5736 7.53363 10.2858 7.1786 10.2858H2.03574C1.6807 10.2858 1.39288 10.5736 1.39288 10.9286Z" stroke="white" stroke-width="1.5" stroke-linecap="round" stroke-linejoin="round"/>
<path d="M10.3929 10.9286V16.0715C10.3929 16.4265 10.6807 16.7143 11.0357 16.7143H16.1786C16.5336 16.7143 16.8215 16.4265 16.8215 16.0715V10.9286C16.8215 10.5736 16.5336 10.2858 16.1786 10.2858H11.0357C10.6807 10.2858 10.3929 10.5736 10.3929 10.9286Z" stroke="white" stroke-width="1.5" stroke-linecap="round" stroke-linejoin="round"/>
</g>
<defs>
<clipPath id="clip0_4_476">
<rect width="18" height="18" fill="white"/>
</clipPath>
</defs>
</svg>
