<svg width="33" height="43" viewBox="0 0 33 43" fill="none" xmlns="http://www.w3.org/2000/svg">
<path d="M16.5 0C7.60605 0 0.375 7.23105 0.375 16.125C0.375 28.0172 15.2486 42.1602 15.8869 42.7564C16.0633 42.916 16.2816 43 16.5 43C16.7184 43 16.9451 42.916 17.1131 42.7564C17.7514 42.1602 32.625 28.0172 32.625 16.125C32.625 7.23105 25.3939 0 16.5 0ZM16.5 25.0861C11.5617 25.0861 7.53887 21.0633 7.53887 16.125C7.53887 11.1867 11.5617 7.16387 16.5 7.16387C21.4383 7.16387 25.4611 11.1867 25.4611 16.125C25.4611 21.0633 21.4383 25.0861 16.5 25.0861Z" fill="#FF8541"/>
</svg>
