<svg width="20" height="20" viewBox="0 0 20 20" fill="none" xmlns="http://www.w3.org/2000/svg">
<g clip-path="url(#clip0_6_554)">
<path d="M9.16666 1.66663C13.3067 1.66663 16.6667 5.02663 16.6667 9.16663C16.6667 13.3066 13.3067 16.6666 9.16666 16.6666C5.02666 16.6666 1.66666 13.3066 1.66666 9.16663C1.66666 5.02663 5.02666 1.66663 9.16666 1.66663ZM9.16666 15C12.3892 15 15 12.3891 15 9.16663C15 5.94329 12.3892 3.33329 9.16666 3.33329C5.94332 3.33329 3.33332 5.94329 3.33332 9.16663C3.33332 12.3891 5.94332 15 9.16666 15ZM16.2375 15.0591L18.595 17.4158L17.4158 18.595L15.0592 16.2375L16.2375 15.0591Z" fill="#3E4657"/>
</g>
<defs>
<clipPath id="clip0_6_554">
<rect width="20" height="20" fill="white"/>
</clipPath>
</defs>
</svg>
